<mxfile host="localhost" agent="Mozilla/5.0 (X11; Linux x86_64) AppleWebKit/537.36 (KHTML, like Gecko) Chrome/130.0.0.0 Safari/537.36" version="24.7.5">
  <diagram name="Page-1" id="VrxnB-QvK3V1DWldhpR4">
    <mxGraphModel dx="675" dy="401" grid="1" gridSize="5" guides="1" tooltips="1" connect="1" arrows="1" fold="1" page="1" pageScale="1" pageWidth="850" pageHeight="1100" background="#1C1C1C" math="0" shadow="0">
      <root>
        <mxCell id="0" />
        <mxCell id="1" parent="0" />
        <mxCell id="LDhf4d--K6ZVePFlAGK--14" value="" style="rounded=0;arcSize=10;dashed=1;fillColor=none;gradientColor=none;strokeWidth=1;strokeColor=#BABABA;" parent="1" vertex="1">
          <mxGeometry x="245" y="85" width="290" height="250" as="geometry" />
        </mxCell>
        <mxCell id="LDhf4d--K6ZVePFlAGK--1" value="Region" style="points=[[0,0],[0.25,0],[0.5,0],[0.75,0],[1,0],[1,0.25],[1,0.5],[1,0.75],[1,1],[0.75,1],[0.5,1],[0.25,1],[0,1],[0,0.75],[0,0.5],[0,0.25]];outlineConnect=0;gradientColor=none;html=1;whiteSpace=wrap;fontSize=12;fontStyle=0;container=1;pointerEvents=0;collapsible=0;recursiveResize=0;shape=mxgraph.aws4.group;grIcon=mxgraph.aws4.group_region;strokeColor=#006769;fillColor=none;verticalAlign=top;align=left;spacingLeft=30;fontColor=#BABABA;dashed=1;strokeWidth=2;" parent="1" vertex="1">
          <mxGeometry x="260" y="100" width="260" height="220" as="geometry" />
        </mxCell>
        <mxCell id="LDhf4d--K6ZVePFlAGK--2" value="SQS &lt;br&gt;Queue" style="sketch=0;points=[[0,0,0],[0.25,0,0],[0.5,0,0],[0.75,0,0],[1,0,0],[0,1,0],[0.25,1,0],[0.5,1,0],[0.75,1,0],[1,1,0],[0,0.25,0],[0,0.5,0],[0,0.75,0],[1,0.25,0],[1,0.5,0],[1,0.75,0]];outlineConnect=0;fontColor=#BABABA;fillColor=#990E52;strokeColor=#ffffff;dashed=0;verticalLabelPosition=bottom;verticalAlign=top;align=center;html=1;fontSize=12;fontStyle=0;aspect=fixed;shape=mxgraph.aws4.resourceIcon;resIcon=mxgraph.aws4.sqs;" parent="LDhf4d--K6ZVePFlAGK--1" vertex="1">
          <mxGeometry x="115" y="90" width="40" height="40" as="geometry" />
        </mxCell>
        <mxCell id="LDhf4d--K6ZVePFlAGK--3" value="Api &lt;br&gt;Gateway" style="sketch=0;points=[[0,0,0],[0.25,0,0],[0.5,0,0],[0.75,0,0],[1,0,0],[0,1,0],[0.25,1,0],[0.5,1,0],[0.75,1,0],[1,1,0],[0,0.25,0],[0,0.5,0],[0,0.75,0],[1,0.25,0],[1,0.5,0],[1,0.75,0]];outlineConnect=0;fontColor=#BABABA;fillColor=#6238B3;strokeColor=#ffffff;dashed=0;verticalLabelPosition=bottom;verticalAlign=top;align=center;html=1;fontSize=12;fontStyle=0;aspect=fixed;shape=mxgraph.aws4.resourceIcon;resIcon=mxgraph.aws4.api_gateway;" parent="LDhf4d--K6ZVePFlAGK--1" vertex="1">
          <mxGeometry x="20" y="90" width="40" height="40" as="geometry" />
        </mxCell>
        <mxCell id="LDhf4d--K6ZVePFlAGK--4" style="edgeStyle=orthogonalEdgeStyle;rounded=0;orthogonalLoop=1;jettySize=auto;html=1;entryX=0;entryY=0.5;entryDx=0;entryDy=0;entryPerimeter=0;fontColor=#BABABA;strokeColor=#BABABA;startArrow=classic;startFill=1;" parent="LDhf4d--K6ZVePFlAGK--1" source="LDhf4d--K6ZVePFlAGK--3" target="LDhf4d--K6ZVePFlAGK--2" edge="1">
          <mxGeometry relative="1" as="geometry" />
        </mxCell>
        <mxCell id="PHAWcoHb7stnkJfgUXHO-7" style="edgeStyle=orthogonalEdgeStyle;rounded=0;orthogonalLoop=1;jettySize=auto;html=1;entryX=0.5;entryY=1;entryDx=0;entryDy=0;strokeColor=#BABABA;" parent="LDhf4d--K6ZVePFlAGK--1" source="LDhf4d--K6ZVePFlAGK--6" target="PHAWcoHb7stnkJfgUXHO-6" edge="1">
          <mxGeometry relative="1" as="geometry" />
        </mxCell>
        <mxCell id="LDhf4d--K6ZVePFlAGK--6" value="Lambda&lt;br&gt;Function" style="outlineConnect=0;dashed=0;verticalLabelPosition=bottom;verticalAlign=top;align=center;html=1;shape=mxgraph.aws3.lambda_function;fillColor=#AD5E25;gradientColor=none;aspect=fixed;fontColor=#BABABA;" parent="LDhf4d--K6ZVePFlAGK--1" vertex="1">
          <mxGeometry x="200" y="90" width="38.33" height="40" as="geometry" />
        </mxCell>
        <mxCell id="LDhf4d--K6ZVePFlAGK--7" style="edgeStyle=orthogonalEdgeStyle;rounded=0;orthogonalLoop=1;jettySize=auto;html=1;entryX=0;entryY=0.5;entryDx=0;entryDy=0;entryPerimeter=0;strokeColor=#BABABA;startArrow=classic;startFill=1;" parent="LDhf4d--K6ZVePFlAGK--1" source="LDhf4d--K6ZVePFlAGK--2" target="LDhf4d--K6ZVePFlAGK--6" edge="1">
          <mxGeometry relative="1" as="geometry" />
        </mxCell>
        <mxCell id="PHAWcoHb7stnkJfgUXHO-6" value="Low concurrency" style="text;html=1;align=center;verticalAlign=middle;whiteSpace=wrap;rounded=0;fontColor=#BABABA;fontSize=13;fontStyle=1" parent="LDhf4d--K6ZVePFlAGK--1" vertex="1">
          <mxGeometry x="178.34" y="30" width="81.66" height="30" as="geometry" />
        </mxCell>
        <mxCell id="PHAWcoHb7stnkJfgUXHO-4" style="edgeStyle=orthogonalEdgeStyle;rounded=0;orthogonalLoop=1;jettySize=auto;html=1;entryX=0.5;entryY=1;entryDx=0;entryDy=0;strokeColor=#BABABA;" parent="1" source="LDhf4d--K6ZVePFlAGK--8" target="PHAWcoHb7stnkJfgUXHO-3" edge="1">
          <mxGeometry relative="1" as="geometry" />
        </mxCell>
        <mxCell id="LDhf4d--K6ZVePFlAGK--8" value="External&lt;br&gt;Firewall" style="image;html=1;image=img/lib/clip_art/networking/Firewall_02_128x128.png;aspect=fixed;fontColor=#BABABA;labelBackgroundColor=none;" parent="1" vertex="1">
          <mxGeometry x="570" y="190" width="40" height="40" as="geometry" />
        </mxCell>
        <mxCell id="LDhf4d--K6ZVePFlAGK--9" style="edgeStyle=orthogonalEdgeStyle;rounded=0;orthogonalLoop=1;jettySize=auto;html=1;entryX=0;entryY=0.5;entryDx=0;entryDy=0;strokeColor=#BABABA;startArrow=classic;startFill=1;" parent="1" source="LDhf4d--K6ZVePFlAGK--6" target="LDhf4d--K6ZVePFlAGK--8" edge="1">
          <mxGeometry relative="1" as="geometry" />
        </mxCell>
        <mxCell id="LDhf4d--K6ZVePFlAGK--12" value="External&lt;br&gt;API" style="sketch=0;aspect=fixed;pointerEvents=1;shadow=0;dashed=0;html=1;strokeColor=none;labelPosition=center;verticalLabelPosition=bottom;verticalAlign=top;align=center;fillColor=#2B609E;shape=mxgraph.mscae.enterprise.application_server;fontColor=#BABABA;" parent="1" vertex="1">
          <mxGeometry x="660" y="185" width="43" height="50" as="geometry" />
        </mxCell>
        <mxCell id="LDhf4d--K6ZVePFlAGK--13" style="edgeStyle=orthogonalEdgeStyle;rounded=0;orthogonalLoop=1;jettySize=auto;html=1;entryX=0;entryY=0.5;entryDx=0;entryDy=0;entryPerimeter=0;strokeColor=#BABABA;" parent="1" source="LDhf4d--K6ZVePFlAGK--8" target="LDhf4d--K6ZVePFlAGK--12" edge="1">
          <mxGeometry relative="1" as="geometry" />
        </mxCell>
        <mxCell id="LDhf4d--K6ZVePFlAGK--18" value="" style="dashed=0;html=1;shape=mxgraph.aws3.cloud;fillColor=#B56228;gradientColor=none;dashed=0;aspect=fixed;" parent="1" vertex="1">
          <mxGeometry x="255" y="75" width="25" height="17.31" as="geometry" />
        </mxCell>
        <mxCell id="PHAWcoHb7stnkJfgUXHO-1" value="" style="outlineConnect=0;dashed=0;verticalLabelPosition=bottom;verticalAlign=top;align=center;html=1;shape=mxgraph.aws3.users;fillColor=#D2D3D3;gradientColor=none;aspect=fixed;" parent="1" vertex="1">
          <mxGeometry x="130" y="186" width="50.29" height="48" as="geometry" />
        </mxCell>
        <mxCell id="PHAWcoHb7stnkJfgUXHO-2" style="edgeStyle=orthogonalEdgeStyle;rounded=0;orthogonalLoop=1;jettySize=auto;html=1;entryX=0;entryY=0.5;entryDx=0;entryDy=0;entryPerimeter=0;strokeColor=#BABABA;startArrow=classic;startFill=1;" parent="1" source="PHAWcoHb7stnkJfgUXHO-1" target="LDhf4d--K6ZVePFlAGK--3" edge="1">
          <mxGeometry relative="1" as="geometry" />
        </mxCell>
        <mxCell id="PHAWcoHb7stnkJfgUXHO-3" value="Rate limit" style="text;html=1;align=center;verticalAlign=middle;whiteSpace=wrap;rounded=0;fontColor=#BABABA;fontSize=13;fontStyle=1" parent="1" vertex="1">
          <mxGeometry x="557.5" y="135" width="65" height="20" as="geometry" />
        </mxCell>
      </root>
    </mxGraphModel>
  </diagram>
</mxfile>
